<svg width="180" height="500" viewBox="0 0 180 500" fill="none" xmlns="http://www.w3.org/2000/svg">
<rect x="149" y="260" width="30" height="187" fill="#C8C8C8"/>
<rect x="149" y="207" width="30" height="9" fill="#969696"/>
<rect x="149" y="224" width="30" height="22" fill="white" fill-opacity="0.8"/>
<rect width="77" height="14" transform="matrix(1 0 0 -1 11 15)" fill="#9063CD"/>
<path d="M11 129C11 140.046 19.9543 149 31 149H88V21H11V129Z" fill="#A689D1"/>
<rect x="34" y="132" width="21" height="164" fill="white" fill-opacity="0.6"/>
<rect x="1" y="428.5" width="2" height="2" fill="#C8C8C8"/>
<rect x="1" y="444.5" width="2" height="2" fill="#C8C8C8"/>
<rect x="1" y="460.5" width="2" height="2" fill="#C8C8C8"/>
<rect x="1" y="476.5" width="2" height="2" fill="#C8C8C8"/>
<rect x="1" y="492.5" width="2" height="2" fill="#C8C8C8"/>
<rect x="20" y="428.5" width="2" height="2" fill="#C8C8C8"/>
<rect x="20" y="444.5" width="2" height="2" fill="#C8C8C8"/>
<rect x="20" y="460.5" width="2" height="2" fill="#C8C8C8"/>
<rect x="20" y="476.5" width="2" height="2" fill="#C8C8C8"/>
<rect x="20" y="492.5" width="2" height="2" fill="#C8C8C8"/>
<rect x="39" y="428.5" width="2" height="2" fill="#C8C8C8"/>
<rect x="39" y="444.5" width="2" height="2" fill="#C8C8C8"/>
<rect x="39" y="460.5" width="2" height="2" fill="#C8C8C8"/>
<rect x="39" y="476.5" width="2" height="2" fill="#C8C8C8"/>
<rect x="39" y="492.5" width="2" height="2" fill="#C8C8C8"/>
<rect x="58" y="428.5" width="2" height="2" fill="#C8C8C8"/>
<rect x="58" y="444.5" width="2" height="2" fill="#C8C8C8"/>
<rect x="58" y="460.5" width="2" height="2" fill="#C8C8C8"/>
<rect x="58" y="476.5" width="2" height="2" fill="#C8C8C8"/>
<rect x="58" y="492.5" width="2" height="2" fill="#C8C8C8"/>
<rect x="77" y="428.5" width="2" height="2" fill="#C8C8C8"/>
<rect x="77" y="444.5" width="2" height="2" fill="#C8C8C8"/>
<rect x="77" y="460.5" width="2" height="2" fill="#C8C8C8"/>
<rect x="77" y="476.5" width="2" height="2" fill="#C8C8C8"/>
<rect x="77" y="492.5" width="2" height="2" fill="#C8C8C8"/>
<rect x="96" y="428.5" width="2" height="2" fill="#C8C8C8"/>
<rect x="96" y="444.5" width="2" height="2" fill="#C8C8C8"/>
<rect x="96" y="460.5" width="2" height="2" fill="#C8C8C8"/>
<rect x="96" y="476.5" width="2" height="2" fill="#C8C8C8"/>
<rect x="96" y="492.5" width="2" height="2" fill="#C8C8C8"/>
<rect x="115" y="428.5" width="2" height="2" fill="#C8C8C8"/>
<rect x="115" y="444.5" width="2" height="2" fill="#C8C8C8"/>
<rect x="115" y="460.5" width="2" height="2" fill="#C8C8C8"/>
<rect x="115" y="476.5" width="2" height="2" fill="#C8C8C8"/>
<rect x="115" y="492.5" width="2" height="2" fill="#C8C8C8"/>
<rect x="134" y="428.5" width="2" height="2" fill="#C8C8C8"/>
<rect x="134" y="444.5" width="2" height="2" fill="#C8C8C8"/>
<rect x="134" y="460.5" width="2" height="2" fill="#C8C8C8"/>
<rect x="134" y="476.5" width="2" height="2" fill="#C8C8C8"/>
<rect x="134" y="492.5" width="2" height="2" fill="#C8C8C8"/>
<rect x="153" y="428.5" width="2" height="2" fill="#C8C8C8"/>
<rect x="153" y="444.5" width="2" height="2" fill="#C8C8C8"/>
<rect x="153" y="460.5" width="2" height="2" fill="#C8C8C8"/>
<rect x="153" y="476.5" width="2" height="2" fill="#C8C8C8"/>
<rect x="153" y="492.5" width="2" height="2" fill="#C8C8C8"/>
<rect x="172" y="428.5" width="2" height="2" fill="#C8C8C8"/>
<rect x="172" y="444.5" width="2" height="2" fill="#C8C8C8"/>
<rect x="172" y="460.5" width="2" height="2" fill="#C8C8C8"/>
<rect x="172" y="476.5" width="2" height="2" fill="#C8C8C8"/>
<rect x="172" y="492.5" width="2" height="2" fill="#C8C8C8"/>
<rect x="69" y="447" width="80" height="12" fill="#C8C8C8"/>
</svg>
