<svg width="180" height="500" viewBox="0 0 180 500" fill="none" xmlns="http://www.w3.org/2000/svg">
<rect x="29" y="126" width="92" height="13" fill="#6EA5EB"/>
<rect x="29" y="148" width="92" height="10" fill="#6EA5EB"/>
<rect x="29" y="158" width="92" height="15" fill="#2F7DDE"/>
<rect x="29" y="173" width="92" height="120" fill="#307FE2" fill-opacity="0.6"/>
<rect x="1" y="1" width="31" height="125" fill="#C8C8C8"/>
<rect x="109" y="234" width="27" height="171" fill="white" fill-opacity="0.55"/>
<rect y="393" width="93" height="12" fill="#969696"/>
<rect x="5" y="25" width="2" height="2" fill="#C8C8C8"/>
<rect x="5" y="39" width="2" height="2" fill="#C8C8C8"/>
<rect x="5" y="53" width="2" height="2" fill="#C8C8C8"/>
<rect x="5" y="67" width="2" height="2" fill="#C8C8C8"/>
<rect x="5" y="81" width="2" height="2" fill="#C8C8C8"/>
<rect x="5" y="95" width="2" height="2" fill="#C8C8C8"/>
<rect x="21" y="25" width="2" height="2" fill="#C8C8C8"/>
<rect x="21" y="39" width="2" height="2" fill="#C8C8C8"/>
<rect x="21" y="53" width="2" height="2" fill="#C8C8C8"/>
<rect x="21" y="67" width="2" height="2" fill="#C8C8C8"/>
<rect x="21" y="81" width="2" height="2" fill="#C8C8C8"/>
<rect x="21" y="95" width="2" height="2" fill="#C8C8C8"/>
<rect x="38" y="25" width="2" height="2" fill="#C8C8C8"/>
<rect x="38" y="39" width="2" height="2" fill="#C8C8C8"/>
<rect x="38" y="53" width="2" height="2" fill="#C8C8C8"/>
<rect x="38" y="67" width="2" height="2" fill="#C8C8C8"/>
<rect x="38" y="81" width="2" height="2" fill="#C8C8C8"/>
<rect x="38" y="95" width="2" height="2" fill="#C8C8C8"/>
<rect x="54" y="25" width="2" height="2" fill="#C8C8C8"/>
<rect x="54" y="39" width="2" height="2" fill="#C8C8C8"/>
<rect x="54" y="53" width="2" height="2" fill="#C8C8C8"/>
<rect x="54" y="67" width="2" height="2" fill="#C8C8C8"/>
<rect x="54" y="81" width="2" height="2" fill="#C8C8C8"/>
<rect x="54" y="95" width="2" height="2" fill="#C8C8C8"/>
<rect x="71" y="25" width="2" height="2" fill="#C8C8C8"/>
<rect x="71" y="39" width="2" height="2" fill="#C8C8C8"/>
<rect x="71" y="53" width="2" height="2" fill="#C8C8C8"/>
<rect x="71" y="67" width="2" height="2" fill="#C8C8C8"/>
<rect x="71" y="81" width="2" height="2" fill="#C8C8C8"/>
<rect x="71" y="95" width="2" height="2" fill="#C8C8C8"/>
<rect x="87" y="25" width="2" height="2" fill="#C8C8C8"/>
<rect x="87" y="39" width="2" height="2" fill="#C8C8C8"/>
<rect x="87" y="53" width="2" height="2" fill="#C8C8C8"/>
<rect x="87" y="67" width="2" height="2" fill="#C8C8C8"/>
<rect x="87" y="81" width="2" height="2" fill="#C8C8C8"/>
<rect x="87" y="95" width="2" height="2" fill="#C8C8C8"/>
<rect x="104" y="25" width="2" height="2" fill="#C8C8C8"/>
<rect x="104" y="39" width="2" height="2" fill="#C8C8C8"/>
<rect x="104" y="53" width="2" height="2" fill="#C8C8C8"/>
<rect x="104" y="67" width="2" height="2" fill="#C8C8C8"/>
<rect x="104" y="81" width="2" height="2" fill="#C8C8C8"/>
<rect x="104" y="95" width="2" height="2" fill="#C8C8C8"/>
<rect x="120" y="25" width="2" height="2" fill="#C8C8C8"/>
<rect x="120" y="39" width="2" height="2" fill="#C8C8C8"/>
<rect x="120" y="53" width="2" height="2" fill="#C8C8C8"/>
<rect x="120" y="67" width="2" height="2" fill="#C8C8C8"/>
<rect x="120" y="81" width="2" height="2" fill="#C8C8C8"/>
<rect x="120" y="95" width="2" height="2" fill="#C8C8C8"/>
<rect x="137" y="25" width="2" height="2" fill="#C8C8C8"/>
<rect x="137" y="39" width="2" height="2" fill="#C8C8C8"/>
<rect x="137" y="53" width="2" height="2" fill="#C8C8C8"/>
<rect x="137" y="67" width="2" height="2" fill="#C8C8C8"/>
<rect x="137" y="81" width="2" height="2" fill="#C8C8C8"/>
<rect x="137" y="95" width="2" height="2" fill="#C8C8C8"/>
<rect x="153" y="25" width="2" height="2" fill="#C8C8C8"/>
<rect x="153" y="39" width="2" height="2" fill="#C8C8C8"/>
<rect x="153" y="53" width="2" height="2" fill="#C8C8C8"/>
<rect x="153" y="67" width="2" height="2" fill="#C8C8C8"/>
<rect x="153" y="81" width="2" height="2" fill="#C8C8C8"/>
<rect x="153" y="95" width="2" height="2" fill="#C8C8C8"/>
<rect x="170" y="25" width="2" height="2" fill="#C8C8C8"/>
<rect x="170" y="39" width="2" height="2" fill="#C8C8C8"/>
<rect x="170" y="53" width="2" height="2" fill="#C8C8C8"/>
<rect x="170" y="67" width="2" height="2" fill="#C8C8C8"/>
<rect x="170" y="81" width="2" height="2" fill="#C8C8C8"/>
<rect x="170" y="95" width="2" height="2" fill="#C8C8C8"/>
</svg>
